# xmcd
#
# Track frame offsets:
#	150
#	15148
#	34355
#	51619
#	64518
#	76803
#	97496
#	116766
#	132571
#	146915
#	162686
#	177004
#	195055
#
# Disc length: 2857 seconds
#
# Revision: 2
# Processed by: cddbd v1.5.2PL0 Copyright (c) Steve Scherf et al.
# Submitted via: EZCDAudioConverter 8.0.3.1
#
DISCID=b80b270d
DTITLE=Chris Ledoux - The Ultimate Collection
DYEAR=2006
DGENRE=Country
TTITLE0=Chris Ledoux - Horsepower
TTITLE1=Chris Ledoux - This Cowboy's Hat
TTITLE2=Chris Ledoux - Life Is A Highway
TTITLE3=Chris Ledoux - He Rides The Wild Horses
TTITLE4=Chris Ledoux Feat. Toby Keith - Copenhagen
TTITLE5=Chris Ledoux - Take Me To The Rodeo
TTITLE6=Chris Ledoux - Seventeen
TTITLE7=Chris Ledoux - Hooked On An 8 Second Ride
TTITLE8=Chris Ledoux - Bareback Jack
TTITLE9=Chris Ledoux - Riding For A Fall
TTITLE10=Chris Ledoux Feat. Charlie Daniels - Even Cowboys Like A Little Rock 
TTITLE10=And Roll
TTITLE11=Chris Ledoux - Silence On The Line
TTITLE12=Chris Ledoux - Little Long-Haired Outlaw
EXTD=
EXTT0=
EXTT1=
EXTT2=
EXTT3=
EXTT4=
EXTT5=
EXTT6=
EXTT7=
EXTT8=
EXTT9=
EXTT10=
EXTT11=
EXTT12=
PLAYORDER=
